<svg xmlns:svg="http://www.w3.org/2000/svg" xmlns="http://www.w3.org/2000/svg" width="30.8" height="33" version="1.1"><g transform="translate(-253.71957,-428.45823)"><path d="m277.5 446.9a10.4 10.4 0 1 1-20.8 0 10.4 10.4 0 1 1 20.8 0z" transform="matrix(1.0910947,0,0,1.0910947,-23.287741,-41.53362)" style="fill:none;stroke-width:3.7;stroke:#6a6a6a"/><rect width="4.9" height="16.1" x="265.6" y="428.5" rx="1.9" ry="1.7" fill="#6a6a6a"/></g><style>.s0{fill:#6a6a6a;}</style><g transform="translate(-385.78814,-658.34153)"><path d="m411.6 675.9c0 6.3-5.1 11.4-11.4 11.4-6.3 0-11.4-5.1-11.4-11.4 0-6.3 5.1-11.4 11.4-11.4 6.3 0 11.4 5.1 11.4 11.4z" style="fill:none;stroke-width:4;stroke:#6a6a6a"/></g></svg>
