<svg xmlns:svg="http://www.w3.org/2000/svg" xmlns="http://www.w3.org/2000/svg" width="33" height="33" version="1.1"><style>.s0{fill:#6a6a6a;}</style><g transform="translate(-369.51078,-661.10803)"><path d="m395 676.6c0 5.5-4.5 9.9-9.9 9.9-5.5 0-9.9-4.5-9.9-9.9 0-5.5 4.5-9.9 9.9-9.9 5.5 0 9.9 4.5 9.9 9.9z" style="fill:none;stroke-width:5;stroke:#6a6a6a"/><rect width="5" height="3.7" x="382.5" y="661.1" fill="#6a6a6a"/><rect width="5" height="3.7" x="382.5" y="688.4" fill="#6a6a6a"/><rect width="5" height="3.7" x="748.2" y="190.7" transform="matrix(0.70710678,0.70710678,-0.70710678,0.70710678,0,0)" fill="#6a6a6a"/><rect width="5" height="3.7" x="748.2" y="218" transform="matrix(0.70710678,0.70710678,-0.70710678,0.70710678,0,0)" fill="#6a6a6a"/><rect width="5" height="3.7" x="674.1" y="-400.5" transform="matrix(0,1,-1,0,0,0)" fill="#6a6a6a"/><rect width="5" height="3.7" x="674.1" y="-373.2" transform="matrix(0,1,-1,0,0,0)" fill="#6a6a6a"/><rect width="5" height="3.7" x="203.7" y="-766.2" transform="matrix(-0.70710678,0.70710678,-0.70710678,-0.70710678,0,0)" fill="#6a6a6a"/><rect width="5" height="3.7" x="203.7" y="-738.9" transform="matrix(-0.70710678,0.70710678,-0.70710678,-0.70710678,0,0)" fill="#6a6a6a"/></g></svg>
