<?xml version="1.0" encoding="UTF-8" standalone="no"?>
<!-- Created with Inkscape (http://www.inkscape.org/) -->

<svg
   xmlns:dc="http://purl.org/dc/elements/1.1/"
   xmlns:cc="http://creativecommons.org/ns#"
   xmlns:rdf="http://www.w3.org/1999/02/22-rdf-syntax-ns#"
   xmlns:svg="http://www.w3.org/2000/svg"
   xmlns="http://www.w3.org/2000/svg"
   xmlns:sodipodi="http://sodipodi.sourceforge.net/DTD/sodipodi-0.dtd"
   xmlns:inkscape="http://www.inkscape.org/namespaces/inkscape"
   width="31.000051"
   height="31.000114"
   id="svg2"
   version="1.1"
   inkscape:version="0.48.4 r9939"
   sodipodi:docname="share.svg">
  <defs
     id="defs4" />
  <sodipodi:namedview
     id="base"
     pagecolor="#ffffff"
     bordercolor="#666666"
     borderopacity="1.0"
     inkscape:pageopacity="0.0"
     inkscape:pageshadow="2"
     inkscape:zoom="7.919596"
     inkscape:cx="16.765147"
     inkscape:cy="11.870303"
     inkscape:document-units="px"
     inkscape:current-layer="layer1"
     showgrid="false"
     fit-margin-top="0.5"
     fit-margin-left="2.5"
     fit-margin-right="2.5"
     fit-margin-bottom="0.5"
     inkscape:window-width="1364"
     inkscape:window-height="680"
     inkscape:window-x="0"
     inkscape:window-y="26"
     inkscape:window-maximized="1"
     borderlayer="true" />
  <metadata
     id="metadata7">
    <rdf:RDF>
      <cc:Work
         rdf:about="">
        <dc:format>image/svg+xml</dc:format>
        <dc:type
           rdf:resource="http://purl.org/dc/dcmitype/StillImage" />
        <dc:title />
      </cc:Work>
    </rdf:RDF>
  </metadata>
  <g
     inkscape:label="Calque 1"
     inkscape:groupmode="layer"
     id="layer1"
     transform="translate(-481.93057,-807.03576)">
    <path
       style="fill:#ffffff"
       d="m 495.94627,837.47593 c -5.43146,-0.70017 -10.18081,-5.81406 -11.20193,-9.98133 -1.55892,-6.95463 2.84194,-13.81644 9.85181,-15.36091 0.94404,-0.17713 1.88235,-0.30991 2.8344,-0.30991 0.012,-1.42934 0.0239,-2.85867 0.0358,-4.28802 4.06727,3.15821 12.96427,8.57621 12.96427,8.57621 0,0 -8.04106,5.33209 -12.96427,8.57619 -0.0119,-1.41995 -0.0238,-2.83991 -0.0358,-4.25986 -4.59506,1.17893 -8.34526,4.3334 -8.35963,8.54819 -0.0446,4.27257 4.28929,8.06678 7.76996,8.5072 l 0.48993,0.0509 c -0.46474,0.007 -0.95045,-0.0149 -1.38458,-0.0587 z"
       id="path2996"
       inkscape:connector-curvature="0"
       sodipodi:nodetypes="ccccccccccccc" />
  </g>
</svg>
