<?xml version="1.0" encoding="UTF-8" standalone="no"?>
<!-- Created with Inkscape (http://www.inkscape.org/) -->

<svg
   xmlns:dc="http://purl.org/dc/elements/1.1/"
   xmlns:cc="http://creativecommons.org/ns#"
   xmlns:rdf="http://www.w3.org/1999/02/22-rdf-syntax-ns#"
   xmlns:svg="http://www.w3.org/2000/svg"
   xmlns="http://www.w3.org/2000/svg"
   xmlns:sodipodi="http://sodipodi.sourceforge.net/DTD/sodipodi-0.dtd"
   xmlns:inkscape="http://www.inkscape.org/namespaces/inkscape"
   width="65.559998"
   height="35.240002"
   id="svg2"
   version="1.1"
   inkscape:version="0.48.4 r9939"
   sodipodi:docname="logo_short.svg"
   inkscape:export-filename="/home/tom/Documents/travaux/2d/freeder/logo.png"
   inkscape:export-xdpi="95.580002"
   inkscape:export-ydpi="95.580002">
  <defs
     id="defs4" />
  <sodipodi:namedview
     id="base"
     pagecolor="#ffffff"
     bordercolor="#666666"
     borderopacity="1.0"
     inkscape:pageopacity="0.0"
     inkscape:pageshadow="2"
     inkscape:zoom="2.8"
     inkscape:cx="131.33323"
     inkscape:cy="28.738208"
     inkscape:document-units="px"
     inkscape:current-layer="text2998-9"
     showgrid="false"
     fit-margin-top="0"
     fit-margin-left="0"
     fit-margin-right="0"
     fit-margin-bottom="0"
     inkscape:window-width="1024"
     inkscape:window-height="553"
     inkscape:window-x="0"
     inkscape:window-y="25"
     inkscape:window-maximized="1" />
  <metadata
     id="metadata7">
    <rdf:RDF>
      <cc:Work
         rdf:about="">
        <dc:format>image/svg+xml</dc:format>
        <dc:type
           rdf:resource="http://purl.org/dc/dcmitype/StillImage" />
        <dc:title />
      </cc:Work>
    </rdf:RDF>
  </metadata>
  <g
     inkscape:label="Calque 1"
     inkscape:groupmode="layer"
     id="layer1"
     transform="translate(-292.16994,-662.03935)">
    <g
       style="font-size:35.78668594px;font-style:normal;font-weight:normal;line-height:125%;letter-spacing:0px;word-spacing:0px;fill:#1a1a1a;fill-opacity:1;stroke:none;font-family:Sans"
       id="text2998-9">
      <g
         id="g2986"
         transform="matrix(0.4237314,0,0,0.4237314,169.36836,400.8202)">
        <path
           sodipodi:nodetypes="sssssssssssssssssssssssssssssssssssssssssssssssssss"
           inkscape:connector-curvature="0"
           id="path2996-9"
           d="m 304.84921,697.0066 c -0.63081,-0.22361 -1.3926,-0.62888 -1.69284,-0.9006 -0.64106,-0.58015 -4.70995,-8.52277 -5.7039,-11.13421 -2.2328,-5.86631 -3.36163,-9.84958 -4.24504,-14.97932 -2.66562,-15.47864 -0.18431,-30.8577 7.32444,-45.39658 2.19779,-4.2555 3.08115,-5.30703 4.80008,-5.7139 1.20907,-0.28618 3.35721,0.73737 3.9489,1.88158 0.82998,1.60499 0.59512,2.72399 -1.36194,6.4891 -4.79513,9.22515 -7.10588,17.09468 -7.82548,26.65065 -0.88283,11.72338 1.67377,23.1545 7.82548,34.98953 1.19553,2.30004 1.8341,3.88499 1.8341,4.5523 0,2.64732 -2.45427,4.42977 -4.9038,3.56145 z m 121.91196,-0.14239 c -1.42038,-0.64913 -2.1989,-1.85965 -2.1989,-3.41906 0,-0.66731 0.63857,-2.25226 1.8341,-4.5523 4.79512,-9.22515 7.10587,-17.09468 7.82548,-26.65064 0.88282,-11.72339 -1.67377,-23.15451 -7.82548,-34.98954 -1.95706,-3.76511 -2.19192,-4.88411 -1.36194,-6.4891 0.66773,-1.29126 2.66585,-2.14349 4.09825,-1.74799 1.81447,0.501 2.45914,1.29527 4.7904,5.90202 2.28402,4.51341 2.9252,6.02384 4.50569,10.61408 2.86007,8.30654 4.22645,18.53093 3.58554,26.83 -0.65219,8.44512 -1.98258,14.2843 -5.1515,22.61011 -1.38798,3.6467 -5.17198,10.70373 -6.12142,11.41627 -1.34809,1.01171 -2.50541,1.15016 -3.98022,0.47615 z M 324.02903,685.16964 c -1.23453,-0.75479 -1.3983,-0.98712 -3.11956,-4.42539 -3.78796,-7.56655 -5.44606,-14.46908 -5.44606,-22.67149 0,-8.20273 1.65661,-15.09877 5.44738,-22.67624 1.73885,-3.47583 2.13932,-3.99566 3.53208,-4.58479 1.52065,-0.64324 3.12628,-0.26474 4.23532,0.9984 1.41971,1.61695 1.27879,2.95612 -0.72962,6.93397 -3.24475,6.4265 -4.71709,12.45953 -4.71709,19.32866 0,6.86912 1.47234,12.90216 4.71709,19.32866 1.22962,2.43537 1.64059,3.57338 1.64059,4.54282 0,1.53766 -0.82803,2.75161 -2.29491,3.36452 -1.33229,0.55666 -2.18675,0.52026 -3.26522,-0.13912 z m 82.89049,0.35627 c -0.36398,-0.0777 -1.07403,-0.61083 -1.57787,-1.18468 -1.41205,-1.60825 -1.28316,-3.00716 0.62778,-6.81346 1.95328,-3.89064 2.80207,-6.14879 3.8057,-10.12478 0.73713,-2.92023 0.79993,-3.65264 0.79993,-9.33023 0,-5.67758 -0.0628,-6.40999 -0.79993,-9.33023 -1.00363,-3.97598 -1.85242,-6.23414 -3.8057,-10.12478 -1.95547,-3.89501 -2.06945,-5.32553 -0.54571,-6.84927 1.80409,-1.80409 4.26804,-1.68134 5.7697,0.28743 1.04026,1.36386 3.83434,7.38527 4.89017,10.53864 1.86635,5.57411 2.31918,8.64967 2.30105,15.62849 -0.0182,6.98448 -0.38527,9.42011 -2.3103,15.32793 -1.22985,3.77429 -4.62948,10.60267 -5.64487,11.33805 -0.80249,0.58121 -2.4072,0.87238 -3.50995,0.63689 z"
           style="fill:#1a1a1a"
           transform="translate(0,1.6784668e-6)" />
        <path
           inkscape:connector-curvature="0"
           id="path2995"
           style="font-size:64.41603851px;font-variant:normal;font-weight:bold;font-stretch:normal;fill:#1a1a1a;font-family:Quicksand;-inkscape-font-specification:Quicksand Bold"
           d="m 356.63793,680.60199 c 1.9969,0 3.6073,-1.6104 3.6073,-3.54288 l 0,-15.45985 15.00894,0 c 1.93248,0 3.54288,-1.6104 3.54288,-3.6073 0,-1.86806 -1.6104,-3.54288 -3.54288,-3.54288 l -15.00894,0 0,-11.78814 17.45675,0 c 1.86806,0 3.54288,-1.6104 3.54288,-3.6073 0,-1.93247 -1.67482,-3.54288 -3.54288,-3.54288 l -20.8708,0 c -0.12883,0 -0.12883,0 -0.12883,0 0,0 -0.0644,0 -0.0644,0 -1.99689,0 -3.54288,1.61041 -3.54288,3.54288 l 0,38.00547 c 0,1.93248 1.54599,3.54288 3.54288,3.54288" />
      </g>
    </g>
  </g>
</svg>
