<svg xmlns:svg="http://www.w3.org/2000/svg" xmlns="http://www.w3.org/2000/svg" width="27.2" height="33" version="1.1"><style>.s0{fill:#6a6a6a;}</style><g transform="translate(-371.47953,-661.10803)"><path d="m384.1 667c-6.9 0-12.6 5.6-12.6 12.6 0 6.9 5.6 12.6 12.6 12.6 6.9 0 12.6-5.6 12.6-12.6l-3.8 0c0 4.9-3.9 8.8-8.8 8.8-4.9 0-8.8-3.9-8.8-8.8 0-4.9 3.9-8.8 8.8-8.8 0 0 00 0 0l0-3.8c000 00 0z" style="-inkscape-font-specification:Sans;baseline-shift:baseline;block-progression:tb;direction:ltr;fill:#6a6a6a;font-family:Sans;font-size:medium;letter-spacing:normal;line-height:normal;text-align:start;text-anchor:start;text-decoration:none;text-indent:0;text-transform:none;word-spacing:normal;writing-mode:lr-tb"/><path d="m381.5 661.1 12.1 7.3-12 8.2 2.5-7.8z" fill="#6a6a6a"/></g></svg>
