<?xml version="1.0" encoding="UTF-8" standalone="no"?>
<!-- Created with Inkscape (http://www.inkscape.org/) -->

<svg
   xmlns:dc="http://purl.org/dc/elements/1.1/"
   xmlns:cc="http://creativecommons.org/ns#"
   xmlns:rdf="http://www.w3.org/1999/02/22-rdf-syntax-ns#"
   xmlns:svg="http://www.w3.org/2000/svg"
   xmlns="http://www.w3.org/2000/svg"
   xmlns:sodipodi="http://sodipodi.sourceforge.net/DTD/sodipodi-0.dtd"
   xmlns:inkscape="http://www.inkscape.org/namespaces/inkscape"
   width="308.53677"
   height="214.59886"
   id="svg44140"
   version="1.1"
   inkscape:version="0.91pre0 r13343"
   viewBox="0 0 308.53677 214.59887"
   sodipodi:docname="logo.svg">
  <defs
     id="defs44142" />
  <sodipodi:namedview
     id="base"
     pagecolor="#ffffff"
     bordercolor="#666666"
     borderopacity="1.0"
     inkscape:pageopacity="0.0"
     inkscape:pageshadow="2"
     inkscape:zoom="0.98994949"
     inkscape:cx="258.35546"
     inkscape:cy="23.972939"
     inkscape:document-units="px"
     inkscape:current-layer="layer1"
     showgrid="false"
     fit-margin-top="0"
     fit-margin-left="0"
     fit-margin-right="0"
     fit-margin-bottom="0"
     inkscape:window-width="1543"
     inkscape:window-height="876"
     inkscape:window-x="57"
     inkscape:window-y="24"
     inkscape:window-maximized="1" />
  <metadata
     id="metadata44145">
    <rdf:RDF>
      <cc:Work
         rdf:about="">
        <dc:format>image/svg+xml</dc:format>
        <dc:type
           rdf:resource="http://purl.org/dc/dcmitype/StillImage" />
        <dc:title></dc:title>
      </cc:Work>
    </rdf:RDF>
  </metadata>
  <g
     inkscape:label="Calque 1"
     inkscape:groupmode="layer"
     id="layer1"
     transform="translate(-177.1602,-73.40179)">
    <g
       transform="matrix(10.811904,0,0,10.811904,-1489.849,-4428.2512)"
       id="g6352">
      <circle
         style="opacity:1;fill:#f0f2f6;fill-opacity:1;stroke:none;stroke-width:1;stroke-linecap:butt;stroke-linejoin:bevel;stroke-miterlimit:4;stroke-dasharray:1, 2;stroke-dashoffset:0;stroke-opacity:1"
         id="circle6354"
         cx="168.45114"
         cy="422.03494"
         r="2.371974"
         d="m 170.82312,422.03494 a 2.371974,2.371974 0 0 1 -2.37198,2.37198 2.371974,2.371974 0 0 1 -2.37197,-2.37198 2.371974,2.371974 0 0 1 2.37197,-2.37197 2.371974,2.371974 0 0 1 2.37198,2.37197 z" />
      <path
         sodipodi:open="true"
         d="m 171.63155,418.85453 a 4.4977784,4.4977784 0 0 1 1.27889,3.76749 4.4977784,4.4977784 0 0 1 -2.21041,3.30811"
         sodipodi:end="1.0471976"
         sodipodi:start="5.4977871"
         sodipodi:ry="4.4977784"
         sodipodi:rx="4.4977784"
         sodipodi:cy="422.03494"
         sodipodi:cx="168.45114"
         sodipodi:type="arc"
         id="path6356"
         style="opacity:1;fill:none;fill-opacity:1;stroke:#f0f2f6;stroke-width:1.47310722;stroke-linecap:butt;stroke-linejoin:bevel;stroke-miterlimit:4;stroke-dasharray:none;stroke-dashoffset:0;stroke-opacity:1" />
      <path
         style="opacity:1;fill:none;fill-opacity:1;stroke:#f0f2f6;stroke-width:1.47310722;stroke-linecap:butt;stroke-linejoin:bevel;stroke-miterlimit:4;stroke-dasharray:none;stroke-dashoffset:0;stroke-opacity:1"
         id="path6358"
         sodipodi:type="arc"
         sodipodi:cx="168.45114"
         sodipodi:cy="422.03494"
         sodipodi:rx="7.2878966"
         sodipodi:ry="7.2878966"
         sodipodi:start="5.4977871"
         sodipodi:end="1.0471976"
         d="m 173.60446,416.88162 a 7.2878966,7.2878966 0 0 1 2.07223,6.10458 7.2878966,7.2878966 0 0 1 -3.5816,5.36025"
         sodipodi:open="true" />
      <path
         style="opacity:1;fill:none;fill-opacity:1;stroke:#f0f2f6;stroke-width:1.47310722;stroke-linecap:butt;stroke-linejoin:bevel;stroke-miterlimit:4;stroke-dasharray:none;stroke-dashoffset:0;stroke-opacity:1"
         id="path6360"
         sodipodi:type="arc"
         sodipodi:cx="168.45114"
         sodipodi:cy="422.03494"
         sodipodi:rx="4.4977784"
         sodipodi:ry="4.4977784"
         sodipodi:start="2.0943951"
         sodipodi:end="3.9269908"
         d="m 166.20225,425.93013 a 4.4977784,4.4977784 0 0 1 -2.21041,-3.30811 4.4977784,4.4977784 0 0 1 1.27889,-3.76749"
         sodipodi:open="true" />
      <path
         d="m 164.80719,428.34645 a 7.2878966,7.2878966 0 0 1 -3.5816,-5.36025 7.2878966,7.2878966 0 0 1 2.07223,-6.10458"
         sodipodi:end="3.9269908"
         sodipodi:start="2.0943951"
         sodipodi:ry="7.2878966"
         sodipodi:rx="7.2878966"
         sodipodi:cy="422.03494"
         sodipodi:cx="168.45114"
         sodipodi:type="arc"
         id="path6362"
         style="opacity:1;fill:none;fill-opacity:1;stroke:#f0f2f6;stroke-width:1.47310722;stroke-linecap:butt;stroke-linejoin:bevel;stroke-miterlimit:4;stroke-dasharray:none;stroke-dashoffset:0;stroke-opacity:1"
         sodipodi:open="true" />
    </g>
    <g
       style="fill:#2c344a;fill-opacity:1"
       transform="matrix(2.300247,0,0,2.300247,-302.73343,-326.15798)"
       id="g6364">
      <g
         style="fill:#2c344a;fill-opacity:1"
         id="g6366">
        <path
           inkscape:connector-curvature="0"
           transform="matrix(2.1264569,0,0,2.1264569,199.80042,-695.91851)"
           id="path6368"
           d="m 16.505859,442.14844 c -1.827637,0 -3.441373,0.92506 -4.404297,2.33008 l 0,-2.24219 -0.939453,0 0,10.30469 0.939453,0 0,-5.05469 0.0059,0 c -5e-6,-2.43501 1.963425,-4.39844 4.398437,-4.39844 l 0,-0.93945 z"
           style="color:#000000;font-style:normal;font-variant:normal;font-weight:normal;font-stretch:normal;font-size:medium;line-height:normal;font-family:sans-serif;text-indent:0;text-align:start;text-decoration:none;text-decoration-line:none;text-decoration-color:currentColor;letter-spacing:normal;word-spacing:normal;text-transform:none;direction:ltr;block-progression:tb;writing-mode:lr-tb;baseline-shift:baseline;text-anchor:start;clip-rule:nonzero;display:inline;overflow:visible;visibility:visible;opacity:1;isolation:auto;color-interpolation:sRGB;color-interpolation-filters:linearRGB;fill:#2c344a;fill-opacity:1;fill-rule:nonzero;stroke:none;stroke-width:2;stroke-linecap:butt;stroke-linejoin:round;stroke-miterlimit:4;stroke-dasharray:none;stroke-dashoffset:0;stroke-opacity:1;color-rendering:auto;image-rendering:auto;shape-rendering:auto;text-rendering:auto;enable-background:accumulate" />
        <path
           transform="matrix(2.1264569,0,0,2.1264569,199.80042,-695.91851)"
           sodipodi:nodetypes="sssccsccsssccs"
           inkscape:connector-curvature="0"
           id="path6370"
           d="m 21.869141,442.14844 c -2.943314,0 -5.339844,2.39457 -5.339844,5.33789 0,2.94331 2.39653,5.33984 5.339844,5.33984 2.445561,0 4.507637,-1.65637 5.136718,-3.90429 l -1.009765,0 c -0.591856,1.72237 -2.199106,2.96289 -4.126953,2.96289 -2.25974,0 -4.092495,-1.69714 -4.347657,-3.88672 l 9.650391,-0.004 c 0.01741,-0.16775 0.03516,-0.33551 0.03516,-0.50781 0,-2.94332 -2.394572,-5.33789 -5.33789,-5.33789 z m 0,0.93945 c 2.288524,0 4.138491,1.74057 4.355468,3.9707 l -8.710937,0 c 0.21702,-2.23009 2.06698,-3.9707 4.355469,-3.9707 z"
           style="color:#000000;font-style:normal;font-variant:normal;font-weight:normal;font-stretch:normal;font-size:medium;line-height:normal;font-family:sans-serif;text-indent:0;text-align:start;text-decoration:none;text-decoration-line:none;text-decoration-color:currentColor;letter-spacing:normal;word-spacing:normal;text-transform:none;direction:ltr;block-progression:tb;writing-mode:lr-tb;baseline-shift:baseline;text-anchor:start;clip-rule:nonzero;display:inline;overflow:visible;visibility:visible;opacity:1;isolation:auto;color-interpolation:sRGB;color-interpolation-filters:linearRGB;fill:#2c344a;fill-opacity:1;fill-rule:nonzero;stroke:none;stroke-width:2;stroke-linecap:butt;stroke-linejoin:round;stroke-miterlimit:4;stroke-dasharray:none;stroke-dashoffset:0;stroke-opacity:1;color-rendering:auto;image-rendering:auto;shape-rendering:auto;text-rendering:auto;enable-background:accumulate" />
        <path
           inkscape:connector-curvature="0"
           transform="matrix(2.1264569,0,0,2.1264569,199.80042,-695.91851)"
           id="path6372"
           d="m 48.710938,438.55469 0,5.92383 c -0.962924,-1.40502 -2.57666,-2.33008 -4.404297,-2.33008 -2.943314,0 -5.337891,2.39457 -5.337891,5.33789 0,2.94331 2.394577,5.33984 5.337891,5.33984 1.827637,0 3.441373,-0.92702 4.404297,-2.33203 l 0,2.04688 0.941406,0 0,-13.98633 -0.941406,0 z m -4.404297,4.5332 c 2.435012,0 4.398437,1.96343 4.398437,4.39844 0,2.43501 -1.963425,4.39844 -4.398437,4.39844 -2.435013,0 -4.398438,-1.96343 -4.398438,-4.39844 0,-2.43501 1.963425,-4.39844 4.398438,-4.39844 z"
           style="color:#000000;font-style:normal;font-variant:normal;font-weight:normal;font-stretch:normal;font-size:medium;line-height:normal;font-family:sans-serif;text-indent:0;text-align:start;text-decoration:none;text-decoration-line:none;text-decoration-color:currentColor;letter-spacing:normal;word-spacing:normal;text-transform:none;direction:ltr;block-progression:tb;writing-mode:lr-tb;baseline-shift:baseline;text-anchor:start;clip-rule:nonzero;display:inline;overflow:visible;visibility:visible;opacity:1;isolation:auto;color-interpolation:sRGB;color-interpolation-filters:linearRGB;fill:#2c344a;fill-opacity:1;fill-rule:nonzero;stroke:none;stroke-width:2;stroke-linecap:butt;stroke-linejoin:round;stroke-miterlimit:4;stroke-dasharray:none;stroke-dashoffset:0;stroke-opacity:1;color-rendering:auto;image-rendering:auto;shape-rendering:auto;text-rendering:auto;enable-background:accumulate" />
        <path
           inkscape:connector-curvature="0"
           id="path6374"
           d="m 342.75897,244.29109 c -3.88642,0 -7.32152,1.96706 -9.3697,4.95482 l 0,-4.76792 -1.99771,0 0,21.91247 1.99771,0 0,-10.74858 0.0125,0 c 0,-5.17794 4.17929,-9.35309 9.35724,-9.35309 l 0,-1.9977 z"
           style="color:#000000;font-style:normal;font-variant:normal;font-weight:normal;font-stretch:normal;font-size:medium;line-height:normal;font-family:sans-serif;text-indent:0;text-align:start;text-decoration:none;text-decoration-line:none;text-decoration-color:currentColor;letter-spacing:normal;word-spacing:normal;text-transform:none;direction:ltr;block-progression:tb;writing-mode:lr-tb;baseline-shift:baseline;text-anchor:start;clip-rule:nonzero;display:inline;overflow:visible;visibility:visible;opacity:1;isolation:auto;color-interpolation:sRGB;color-interpolation-filters:linearRGB;fill:#2c344a;fill-opacity:1;fill-rule:nonzero;stroke:none;stroke-width:2;stroke-linecap:butt;stroke-linejoin:round;stroke-miterlimit:4;stroke-dasharray:none;stroke-dashoffset:0;stroke-opacity:1;color-rendering:auto;image-rendering:auto;shape-rendering:auto;text-rendering:auto;enable-background:accumulate" />
        <path
           sodipodi:nodetypes="scsccccccccccsccs"
           inkscape:connector-curvature="0"
           id="path6376"
           transform="matrix(2.1264569,0,0,2.1264569,199.80042,-695.91851)"
           d="m 9.5761719,436.68555 c -0.1946398,-0.003 -0.3890757,0.005 -0.5839844,0.0234 -0.5197613,0.0494 -1.0366651,0.17634 -1.5351563,0.38282 -1.9627985,0.81302 -3.2491351,2.71419 -3.2890624,4.83203 -0.02746,3.50826 -0.013672,7.08459 -0.013672,10.61719 l 0.9414062,0 0,-5.05469 0.00391,0 c 0,-2.43501 1.9653777,-4.39844 4.4003906,-4.39844 l 0,-0.93945 c -1.8276371,0 -3.4413724,0.92506 -4.4042969,2.33008 l 0,-2.45508 0.00391,0 c 0,-1.78054 1.0717976,-3.38112 2.7167968,-4.0625 1.645004,-0.68139 3.5339395,-0.30591 4.7929685,0.95312 l 0.666016,-0.66601 c -1.001512,-1.00151 -2.336741,-1.54207 -3.6992188,-1.5625 z"
           style="color:#000000;font-style:normal;font-variant:normal;font-weight:normal;font-stretch:normal;font-size:medium;line-height:normal;font-family:sans-serif;text-indent:0;text-align:start;text-decoration:none;text-decoration-line:none;text-decoration-color:currentColor;letter-spacing:normal;word-spacing:normal;text-transform:none;direction:ltr;block-progression:tb;writing-mode:lr-tb;baseline-shift:baseline;text-anchor:start;clip-rule:nonzero;display:inline;overflow:visible;visibility:visible;opacity:1;isolation:auto;color-interpolation:sRGB;color-interpolation-filters:linearRGB;fill:#2c344a;fill-opacity:1;fill-rule:nonzero;stroke:none;stroke-width:2;stroke-linecap:butt;stroke-linejoin:round;stroke-miterlimit:4;stroke-dasharray:none;stroke-dashoffset:0;stroke-opacity:1;color-rendering:auto;image-rendering:auto;shape-rendering:auto;text-rendering:auto;enable-background:accumulate" />
        <path
           style="color:#000000;font-style:normal;font-variant:normal;font-weight:normal;font-stretch:normal;font-size:medium;line-height:normal;font-family:sans-serif;text-indent:0;text-align:start;text-decoration:none;text-decoration-line:none;text-decoration-color:currentColor;letter-spacing:normal;word-spacing:normal;text-transform:none;direction:ltr;block-progression:tb;writing-mode:lr-tb;baseline-shift:baseline;text-anchor:start;clip-rule:nonzero;display:inline;overflow:visible;visibility:visible;opacity:1;isolation:auto;color-interpolation:sRGB;color-interpolation-filters:linearRGB;fill:#2c344a;fill-opacity:1;fill-rule:nonzero;stroke:none;stroke-width:2;stroke-linecap:butt;stroke-linejoin:round;stroke-miterlimit:4;stroke-dasharray:none;stroke-dashoffset:0;stroke-opacity:1;color-rendering:auto;image-rendering:auto;shape-rendering:auto;text-rendering:auto;enable-background:accumulate"
           d="m 270.16245,244.29109 c -6.25883,0 -11.35494,5.09195 -11.35494,11.35079 0,6.25883 5.09611,11.35494 11.35494,11.35494 5.20038,0 9.5853,-3.5222 10.92301,-8.3023 l -2.14722,0 c -1.25855,3.66254 -4.6763,6.30046 -8.77579,6.30046 -4.80524,0 -8.70251,-3.6089 -9.2451,-8.26495 l 20.52114,-0.009 c 0.037,-0.35671 0.0748,-0.71345 0.0748,-1.07984 0,-6.25884 -5.09196,-11.35079 -11.3508,-11.35079 z m 0,1.9977 c 4.86645,0 8.80033,3.70125 9.26172,8.44352 l -18.52343,0 c 0.46148,-4.74219 4.39534,-8.44352 9.26171,-8.44352 z"
           id="path6378"
           inkscape:connector-curvature="0"
           sodipodi:nodetypes="sssccsccsssccs" />
        <path
           sodipodi:nodetypes="sssccsccsssccs"
           inkscape:connector-curvature="0"
           id="path6380"
           d="m 318.38982,244.29109 c -6.25883,0 -11.35494,5.09195 -11.35494,11.35079 0,6.25883 5.09611,11.35494 11.35494,11.35494 5.20038,0 9.5853,-3.5222 10.92301,-8.3023 l -2.14722,0 c -1.25855,3.66254 -4.6763,6.30046 -8.77579,6.30046 -4.80524,0 -8.70251,-3.6089 -9.2451,-8.26495 l 20.52114,-0.009 c 0.037,-0.35671 0.0748,-0.71345 0.0748,-1.07984 0,-6.25884 -5.09196,-11.35079 -11.3508,-11.35079 z m 0,1.9977 c 4.86645,0 8.80033,3.70125 9.26172,8.44352 l -18.52343,0 c 0.46148,-4.74219 4.39534,-8.44352 9.26171,-8.44352 z"
           style="color:#000000;font-style:normal;font-variant:normal;font-weight:normal;font-stretch:normal;font-size:medium;line-height:normal;font-family:sans-serif;text-indent:0;text-align:start;text-decoration:none;text-decoration-line:none;text-decoration-color:currentColor;letter-spacing:normal;word-spacing:normal;text-transform:none;direction:ltr;block-progression:tb;writing-mode:lr-tb;baseline-shift:baseline;text-anchor:start;clip-rule:nonzero;display:inline;overflow:visible;visibility:visible;opacity:1;isolation:auto;color-interpolation:sRGB;color-interpolation-filters:linearRGB;fill:#2c344a;fill-opacity:1;fill-rule:nonzero;stroke:none;stroke-width:2;stroke-linecap:butt;stroke-linejoin:round;stroke-miterlimit:4;stroke-dasharray:none;stroke-dashoffset:0;stroke-opacity:1;color-rendering:auto;image-rendering:auto;shape-rendering:auto;text-rendering:auto;enable-background:accumulate" />
      </g>
    </g>
  </g>
</svg>
