<?xml version="1.0" encoding="UTF-8" standalone="no"?>
<!-- Created with Inkscape (http://www.inkscape.org/) -->

<svg
   xmlns:dc="http://purl.org/dc/elements/1.1/"
   xmlns:cc="http://creativecommons.org/ns#"
   xmlns:rdf="http://www.w3.org/1999/02/22-rdf-syntax-ns#"
   xmlns:svg="http://www.w3.org/2000/svg"
   xmlns="http://www.w3.org/2000/svg"
   xmlns:sodipodi="http://sodipodi.sourceforge.net/DTD/sodipodi-0.dtd"
   xmlns:inkscape="http://www.inkscape.org/namespaces/inkscape"
   width="24.065992"
   height="24.065992"
   id="svg44140"
   version="1.1"
   inkscape:version="0.91pre0 r13343"
   viewBox="0 0 24.065992 24.065993"
   sodipodi:docname="settings.svg">
  <defs
     id="defs44142" />
  <sodipodi:namedview
     id="base"
     pagecolor="#ffffff"
     bordercolor="#666666"
     borderopacity="1.0"
     inkscape:pageopacity="0.0"
     inkscape:pageshadow="2"
     inkscape:zoom="2.8"
     inkscape:cx="7.7524327"
     inkscape:cy="-10.774439"
     inkscape:document-units="px"
     inkscape:current-layer="layer1"
     showgrid="false"
     fit-margin-top="0"
     fit-margin-left="0"
     fit-margin-right="0"
     fit-margin-bottom="0"
     inkscape:window-width="1543"
     inkscape:window-height="876"
     inkscape:window-x="57"
     inkscape:window-y="24"
     inkscape:window-maximized="1"
     inkscape:snap-page="true"
     inkscape:snap-bbox="true"
     inkscape:bbox-nodes="true" />
  <metadata
     id="metadata44145">
    <rdf:RDF>
      <cc:Work
         rdf:about="">
        <dc:format>image/svg+xml</dc:format>
        <dc:type
           rdf:resource="http://purl.org/dc/dcmitype/StillImage" />
        <dc:title></dc:title>
      </cc:Work>
    </rdf:RDF>
  </metadata>
  <g
     inkscape:label="Calque 1"
     inkscape:groupmode="layer"
     id="layer1"
     transform="translate(-179.77442,-80.503137)">
    <circle
       style="opacity:1;fill:#8d99bb;fill-opacity:1;stroke:none;stroke-width:1;stroke-linecap:butt;stroke-linejoin:bevel;stroke-miterlimit:4;stroke-dasharray:1, 2;stroke-dashoffset:0;stroke-opacity:1"
       id="circle6322"
       cx="191.80742"
       cy="92.536133"
       r="12.032997" />
    <g
       transform="matrix(1.3751997,0,0,1.3751997,-36.791635,-686.10666)"
       id="g6402">
      <circle
         style="opacity:1;fill:#f0f2f6;fill-opacity:1;stroke:none;stroke-width:0.69999999;stroke-linecap:butt;stroke-linejoin:miter;stroke-miterlimit:4;stroke-dasharray:none;stroke-dashoffset:0;stroke-opacity:1"
         id="circle6404"
         cx="166.22972"
         cy="566.20343"
         r="1.2758884"
         d="m 167.50561,566.20343 a 1.2758884,1.2758884 0 0 1 -1.27589,1.27589 1.2758884,1.2758884 0 0 1 -1.27589,-1.27589 1.2758884,1.2758884 0 0 1 1.27589,-1.27589 1.2758884,1.2758884 0 0 1 1.27589,1.27589 z" />
      <path
         style="color:#000000;font-style:normal;font-variant:normal;font-weight:normal;font-stretch:normal;font-size:medium;line-height:normal;font-family:sans-serif;text-indent:0;text-align:start;text-decoration:none;text-decoration-line:none;text-decoration-color:currentColor;letter-spacing:normal;word-spacing:normal;text-transform:none;direction:ltr;block-progression:tb;writing-mode:lr-tb;baseline-shift:baseline;text-anchor:start;clip-rule:nonzero;display:inline;overflow:visible;visibility:visible;opacity:1;isolation:auto;color-interpolation:sRGB;color-interpolation-filters:linearRGB;fill:#d9dde8;fill-opacity:1;fill-rule:nonzero;stroke:none;stroke-width:0.69999999;stroke-linecap:butt;stroke-linejoin:miter;stroke-miterlimit:4;stroke-dasharray:none;stroke-dashoffset:0;stroke-opacity:1;color-rendering:auto;image-rendering:auto;shape-rendering:auto;text-rendering:auto;enable-background:accumulate"
         d="m 166.44749,561.3675 -0.24805,0.21289 -0.48046,0.41211 -0.85938,-0.42774 -0.16406,0.28125 -0.32031,0.54492 -0.95118,-0.12304 -0.0664,0.31836 -0.12695,0.62109 -0.93555,0.19141 0.12305,0.95117 -0.82813,0.48437 0.42773,0.85938 -0.625,0.72656 0.68164,0.67383 -0.35156,0.89062 0.86328,0.41602 -0.0469,0.95703 0.95312,0.11328 0.26953,0.91992 0.9375,-0.20117 0.55079,0.78125 0.82031,-0.49414 0.77539,0.5625 0.61523,-0.73437 0.91993,0.27734 0.34375,-0.89453 0.95507,-0.0312 0.0352,-0.95899 0.89453,-0.34375 -0.2793,-0.91797 0.73633,-0.61523 -0.5625,-0.77539 0.4961,-0.82227 -0.78321,-0.55273 0.20313,-0.93555 -0.92188,-0.26953 -0.11328,-0.95117 -0.32617,0.0156 -0.63086,0.0293 -0.41602,-0.86328 -0.30273,0.11914 -0.58984,0.23438 -0.67188,-0.68164 z m -0.21679,1.29687 c 0.23881,0 0.47188,0.0255 0.69726,0.0703 l 0.0293,0.006 0.002,0 c 0.20658,0.043 0.40418,0.10641 0.5957,0.1836 0.0807,0.0327 0.15618,0.0766 0.23438,0.11523 0.11375,0.0561 0.22758,0.11219 0.33398,0.17969 0.0989,0.0626 0.18948,0.13716 0.28125,0.20898 0.0671,0.0526 0.1342,0.10488 0.19727,0.16211 0.0846,0.0768 0.16509,0.15727 0.24219,0.24219 0.0768,0.0846 0.15037,0.17184 0.21875,0.26367 0.0577,0.0775 0.11296,0.15641 0.16406,0.23828 0.0617,0.0988 0.11415,0.20354 0.16601,0.3086 0.0389,0.0788 0.0842,0.15465 0.11719,0.23632 0.0488,0.12111 0.0799,0.24958 0.11524,0.37696 0.0396,0.14285 0.0704,0.28686 0.0918,0.43359 0.0246,0.16899 0.0527,0.33771 0.0527,0.51367 0,0.20875 -0.0281,0.41068 -0.0625,0.60938 -0.0149,0.0825 -0.0321,0.16472 -0.0527,0.24609 -0.0297,0.11968 -0.0679,0.23514 -0.10937,0.34961 -0.0363,0.099 -0.0721,0.19773 -0.11719,0.29297 -0.0366,0.0782 -0.081,0.15165 -0.12305,0.22656 -0.057,0.10083 -0.11127,0.20384 -0.17773,0.29883 l -0.0234,0.0332 c -0.0248,0.0347 -0.056,0.0639 -0.082,0.0977 -0.1846,0.23872 -0.39782,0.45242 -0.63672,0.63672 -0.0352,0.0272 -0.0654,0.0601 -0.10156,0.0859 l -0.0254,0.0176 c -0.0972,0.0682 -0.20145,0.12363 -0.30469,0.18165 -0.0742,0.0415 -0.14723,0.0848 -0.22461,0.12109 -0.10006,0.0471 -0.20436,0.0855 -0.30859,0.12305 -0.11648,0.0416 -0.23366,0.08 -0.35547,0.10937 -0.0727,0.0177 -0.14515,0.0339 -0.21875,0.0469 -0.18775,0.0329 -0.37934,0.0564 -0.57617,0.0586 -0.009,1.1e-4 -0.0182,0.002 -0.0273,0.002 l -0.0566,-0.002 c -0.11343,-10e-4 -0.22145,-0.0234 -0.33203,-0.0352 -0.21809,-0.0227 -0.43256,-0.0644 -0.64258,-0.12695 -0.10012,-0.0302 -0.20269,-0.0532 -0.29882,-0.0918 -0.001,-5.4e-4 -0.003,-10e-4 -0.004,-0.002 -0.0896,-0.0363 -0.17352,-0.0836 -0.25977,-0.12695 -0.095,-0.0477 -0.18944,-0.0966 -0.27929,-0.15235 -0.0886,-0.055 -0.17434,-0.11499 -0.25782,-0.17773 -0.0949,-0.0713 -0.18635,-0.14629 -0.27343,-0.22656 -0.0707,-0.0649 -0.13803,-0.1329 -0.20313,-0.20313 -0.0806,-0.0874 -0.15502,-0.1801 -0.22656,-0.27539 -0.0476,-0.0631 -0.0993,-0.12313 -0.14258,-0.18945 -0.071,-0.10923 -0.12669,-0.22854 -0.18555,-0.34571 -0.045,-0.0893 -0.0936,-0.17691 -0.13086,-0.26953 -8.6e-4,-0.002 -0.003,-0.004 -0.004,-0.006 -0.0722,-0.18193 -0.13231,-0.36901 -0.17383,-0.56445 l -0.004,-0.0195 -0.006,-0.0293 c -0.0443,-0.22422 -0.0703,-0.45587 -0.0703,-0.69336 0,-0.20802 0.0263,-0.40938 0.0606,-0.60742 0.0146,-0.0833 0.0342,-0.166 0.0547,-0.24805 0.0292,-0.11766 0.0668,-0.23111 0.10742,-0.34375 0.0295,-0.0818 0.0543,-0.1647 0.0898,-0.24414 0.0562,-0.12574 0.12539,-0.24391 0.19531,-0.36132 0.0484,-0.0807 0.0938,-0.16374 0.14844,-0.24024 0.0977,-0.13685 0.20394,-0.26672 0.32032,-0.38867 l 0.004,-0.004 0.0996,-0.10351 0.002,-0.002 c 0.13279,-0.12829 0.27612,-0.2452 0.42774,-0.35156 0.06,-0.0423 0.1249,-0.0767 0.1875,-0.11523 0.12789,-0.0783 0.25848,-0.15303 0.39648,-0.21485 0.0789,-0.0352 0.16101,-0.0625 0.24219,-0.0918 0.11316,-0.0409 0.22745,-0.078 0.3457,-0.10742 0.086,-0.0214 0.17238,-0.0398 0.25977,-0.0547 0.19507,-0.0331 0.39295,-0.0606 0.59766,-0.0606 z"
         id="path6406"
         inkscape:connector-curvature="0" />
    </g>
  </g>
</svg>
